<?xml version="1.0" encoding="iso-8859-1"?>
<!-- Generator: Adobe Illustrator 19.0.0, SVG Export Plug-In . SVG Version: 6.00 Build 0)  -->
<svg version="1.1" id="Capa_1" xmlns="http://www.w3.org/2000/svg" xmlns:xlink="http://www.w3.org/1999/xlink" x="0px" y="0px"
	 viewBox="0 0 354.816 354.816" style="enable-background:new 0 0 354.816 354.816;" xml:space="preserve">
<g>
	<g>
		<g>
			<path d="M154.368,178.688C153.856,178.176,153.856,178.688,154.368,178.688L154.368,178.688z"/>
			<path d="M265.984,0c-29.184,0-53.248,23.04-55.808,51.712H44.8c-6.656,0-11.776,3.584-11.776,8.704v2.048l115.712,126.464
				v155.648H116.48c-3.072,0-5.12,2.048-5.12,5.12c0,3.072,2.048,5.12,5.12,5.12h75.264c3.072,0,5.12-2.048,5.12-5.12
				c0-3.072-2.048-5.12-5.12-5.12h-32.256v-156.16l77.312-84.992c8.704,5.632,18.944,8.192,29.184,8.192
				c30.72,0,55.808-25.088,55.808-55.808C321.792,25.088,296.704,0,265.984,0z M154.368,178.688c-0.512,0-1.024,0-1.024,0
				L75.008,93.184c10.752-4.096,21.504-7.68,40.448-7.68c20.48,0,31.232,4.096,42.496,8.192c11.776,4.096,24.064,8.704,46.08,8.704
				c8.192,0,15.36-0.512,20.992-1.536L154.368,178.688z M204.032,92.672c-20.48,0-31.232-4.096-42.496-8.192
				c-11.776-4.096-24.064-8.704-46.08-8.704s-34.304,4.608-46.08,8.704l-1.536,0.512l-21.504-23.04h214.528l-23.04,25.6
				C229.632,90.112,219.904,92.672,204.032,92.672z M265.984,101.888c-7.68,0-15.36-2.048-22.016-5.632l30.72-33.792v-2.048
				c0-5.12-5.12-8.704-11.776-8.704h-42.496c2.048-23.04,21.504-41.472,45.568-41.472c25.088,0,45.568,20.48,45.568,45.568
				C311.552,81.408,291.072,101.888,265.984,101.888z"/>
		</g>
	</g>
</g>
<g>
	<g>
		<path d="M298.752,50.688h-12.288c-3.072,0-5.12,2.048-5.12,5.12s2.048,5.12,5.12,5.12h12.288c3.072,0,5.12-2.048,5.12-5.12
			C303.872,53.248,301.312,50.688,298.752,50.688z"/>
	</g>
</g>
<g>
	<g>
		<path d="M265.984,18.432c-3.072,0-5.12,2.048-5.12,5.12V35.84c0,3.072,2.048,5.12,5.12,5.12c3.072,0,5.12-2.048,5.12-5.12V23.552
			C271.104,20.48,269.056,18.432,265.984,18.432z"/>
	</g>
</g>
<g>
	<g>
		<path d="M292.608,75.264l-8.704-8.704c-2.048-2.048-5.12-2.048-7.168,0c-2.048,2.048-2.048,5.12,0,7.168l8.704,8.704
			c1.024,1.024,2.56,1.536,3.584,1.536c1.536,0,2.56-0.512,3.584-1.536C294.656,80.384,294.656,77.312,292.608,75.264z"/>
	</g>
</g>
<g>
	<g>
		<path d="M255.232,37.888l-8.704-8.704c-2.048-2.048-5.12-2.048-7.168,0c-2.048,2.048-2.048,5.12,0,7.168l8.704,8.704
			c1.024,1.024,2.56,1.536,3.584,1.536c1.536,0,2.56-0.512,3.584-1.536C257.28,43.008,257.28,39.936,255.232,37.888z"/>
	</g>
</g>
<g>
	<g>
		<path d="M292.608,29.184c-2.048-2.048-5.12-2.048-7.168,0l-8.704,8.704c-2.048,2.048-2.048,5.12,0,7.168
			c1.024,1.024,2.048,1.536,3.584,1.536c1.536,0,2.56-0.512,3.584-1.536l8.704-8.704C294.656,34.304,294.656,31.232,292.608,29.184z
			"/>
	</g>
</g>
<g>
</g>
<g>
</g>
<g>
</g>
<g>
</g>
<g>
</g>
<g>
</g>
<g>
</g>
<g>
</g>
<g>
</g>
<g>
</g>
<g>
</g>
<g>
</g>
<g>
</g>
<g>
</g>
<g>
</g>
</svg>
